<?xml version="1.0" encoding="UTF-8" standalone="no"?>
<svg
  xmlns:dc='http://purl.org/dc/elements/1.1/'
  xmlns:cc='http://creativecommons.org/ns#'
  xmlns:rdf='http://www.w3.org/1999/02/22-rdf-syntax-ns#'
  xmlns='http://www.w3.org/2000/svg'
  xmlns:xlink='http://www.w3.org/1999/xlink'
  xmlns:sodipodi='http://sodipodi.sourceforge.net/DTD/sodipodi-0.dtd'
  xmlns:inkscape='http://www.inkscape.org/namespaces/inkscape'
  width='512'
  height='512'
  viewBox='0 0 512 512'
  version='1.1'
  id='svg50'
  sodipodi:docname='cds_512.svg'
  inkscape:version='1.0.1 (3bc2e813f5, 2020-09-07)'>
  <metadata
     id="metadata54">
    <rdf:RDF>
      <cc:Work
         rdf:about="">
        <dc:format>image/svg+xml</dc:format>
        <dc:type
           rdf:resource="http://purl.org/dc/dcmitype/StillImage" />
      </cc:Work>
    </rdf:RDF>
  </metadata>
  <sodipodi:namedview
     pagecolor="#ffffff"
     bordercolor="#666666"
     borderopacity="1"
     objecttolerance="10"
     gridtolerance="10"
     guidetolerance="10"
     inkscape:pageopacity="0"
     inkscape:pageshadow="2"
     inkscape:window-width="1920"
     inkscape:window-height="1001"
     id="namedview52"
     showgrid="false"
     inkscape:zoom="0.8203125"
     inkscape:cx="-201.60994"
     inkscape:cy="210.23007"
     inkscape:window-x="4791"
     inkscape:window-y="-9"
     inkscape:window-maximized="1"
     inkscape:current-layer="svg50"
     inkscape:document-rotation="0" />
  <!-- Generator: Sketch 59.1 (86144) - https://sketch.com -->
  <title
     id="title2">logo</title>
  <desc
     id="desc4">Created with Sketch.</desc>
  <defs
     id="defs10">
    <polygon
       id="path-1"
       points="14.228769,9.2028846 0.065307692,9.2028846 0.065307692,0.30846154 14.228769,0.30846154 " />
    <polygon
       id="path-3"
       points="14.824538,9.1926154 0,9.1926154 0,0.14338461 14.824538,0.14338461 " />
    <polygon
       id="path-5"
       points="7.4436154,8.5450385 0,8.5450385 0,0.029269231 7.4436154,0.029269231 " />
    <polygon
       id="path-7"
       points="14.824538,9.3957692 0,9.3957692 0,0.34653846 14.824538,0.34653846 " />
  </defs>
  <g
     id="g938">
    <rect
       style="opacity:1;fill:#ffffff;stroke-width:0.295893"
       id="rect868"
       width="512"
       height="512"
       x="0"
       y="0" />
    <g
       id="Symbols"
       stroke="none"
       stroke-width="1"
       fill="none"
       fill-rule="evenodd"
       transform="matrix(17.195545,0,0,17.195545,0,18.563919)">
      <g
         id="Side-Nav"
         transform="translate(-10,-16)">
        <g
           id="logo---icon">
          <g
             id="g45">
            <g
               id="logo"
               transform="translate(10,16)">
              <polygon
                 id="Fill-1"
                 fill="#312f31"
                 points="0.00015384615,18.160692 14.824385,27.307615 29.775154,17.719154 29.775154,9.4553077 14.824385,0.30838461 0.00015384615,9.6445385 " />
              <g
                 id="Group-26">
                <g
                   id="Group-4"
                   transform="translate(7.692308)">
                  <mask
                     id="mask-2"
                     fill="#ffffff">
                    <use
                       xlink:href="#path-1"
                       id="use13"
                       x="0"
                       y="0"
                       width="100%"
                       height="100%" />
                  </mask>
                  <g
                     id="Clip-3" />
                  <path
                     d="M 7.1322308,0.30826923 0.06530769,4.7586538 7.1322308,9.2028846 C 9.4976154,7.6855769 11.863385,6.1675 14.228769,4.6501923 11.863385,3.2025 9.4976154,1.7555769 7.1322308,0.30826923"
                     id="Fill-2"
                     fill="#5dbdba"
                     mask="url(#mask-2)" />
                </g>
                <path
                   d="m 29.774961,9.4552692 c -2.618076,-1.6015384 -5.235769,-3.2034615 -7.853846,-4.805 -2.365384,1.5173077 -4.731154,3.035 -7.096538,4.5526923 l 7.475,4.6049995 z"
                   id="Fill-5"
                   fill="#17a1a1" />
                <g
                   id="Group-9"
                   transform="translate(0,4.615385)">
                  <mask
                     id="mask-4"
                     fill="#ffffff">
                    <use
                       xlink:href="#path-3"
                       id="use20"
                       x="0"
                       y="0"
                       width="100%"
                       height="100%" />
                  </mask>
                  <g
                     id="Clip-8" />
                  <polygon
                     id="Fill-7"
                     fill="#17a1a1"
                     mask="url(#mask-4)"
                     points="7.7576154,0.14338461 -7.6923077e-05,5.0291539 7.4437692,9.1926154 14.824538,4.5876154 " />
                </g>
                <polygon
                   id="Fill-10"
                   fill="#08809a"
                   points="29.774961,17.719115 29.143423,18.124115 22.299577,13.807961 29.774961,9.4552692 " />
                <polygon
                   id="Fill-12"
                   fill="#08809a"
                   points="7.4437692,13.808269 14.824538,18.602115 22.299923,13.808269 14.824538,9.2028846 " />
                <polygon
                   id="Fill-14"
                   fill="#0f699d"
                   points="22.299731,13.808 14.824731,18.602231 21.763577,22.857615 29.143577,18.124154 " />
                <g
                   id="Group-18"
                   transform="translate(0,9.615385)">
                  <mask
                     id="mask-6"
                     fill="#ffffff">
                    <use
                       xlink:href="#path-5"
                       id="use29"
                       x="0"
                       y="0"
                       width="100%"
                       height="100%" />
                  </mask>
                  <g
                     id="Clip-17" />
                  <polygon
                     id="Fill-16"
                     fill="#08809a"
                     mask="url(#mask-6)"
                     points="-0.00023076923,8.5450385 7.4436154,4.1927308 -0.00023076923,0.029269231 " />
                </g>
                <g
                   id="Group-21"
                   transform="translate(0,13.461538)">
                  <mask
                     id="mask-8"
                     fill="#ffffff">
                    <use
                       xlink:href="#path-7"
                       id="use35"
                       x="0"
                       y="0"
                       width="100%"
                       height="100%" />
                  </mask>
                  <g
                     id="Clip-20" />
                  <polygon
                     id="Fill-19"
                     fill="#0f699d"
                     mask="url(#mask-8)"
                     points="14.824538,5.1407692 7.4437692,0.34653846 -7.6923077e-05,4.6992308 7.6118461,9.3957692 " />
                </g>
                <polygon
                   id="Fill-22"
                   fill="#1b3d6e"
                   points="14.824538,18.602462 7.6118461,22.857461 14.824538,27.307461 21.763385,22.857461 " />
                <path
                   d="m 10.958115,20.1415 c -0.820384,0 -1.5015381,-0.07269 -2.0438458,-0.218077 -0.5430769,-0.145385 -0.9765384,-0.387308 -1.3003846,-0.725 -0.3242308,-0.337308 -0.5561538,-0.790385 -0.695,-1.359231 C 6.7804231,17.269961 6.7108077,16.561885 6.7108077,15.715346 v -4.803461 c 0,-0.846539 0.069615,-1.5546158 0.2080769,-2.1238465 0.1388462,-0.5684616 0.3707692,-1.0253846 0.695,-1.3692308 C 7.9377308,7.0745769 8.3711923,6.8330385 8.9142692,6.6941923 9.4565769,6.5553461 10.137731,6.4857308 10.958115,6.4857308 h 7.661539 c 0.503077,0 0.942692,0.069615 1.32,0.2084615 0.376923,0.1388462 0.697692,0.3111538 0.962307,0.5161539 0.265,0.2053846 0.476924,0.4234615 0.635385,0.6549999 0.158846,0.2319231 0.278077,0.4400001 0.357692,0.6250001 L 20.187731,10.237269 C 20.0685,9.9726539 19.876577,9.7311154 19.612346,9.5126539 c -0.265,-0.2184616 -0.655,-0.3273077 -1.171154,-0.3273077 h -7.463077 c -0.595384,0 -1.0123073,0.1257692 -1.2503842,0.376923 C 9.4896539,9.8138077 9.3704231,10.263808 9.3704231,10.911885 v 4.823077 c 0,0.291538 0.02,0.542692 0.059231,0.754615 0.04,0.211538 0.1157693,0.390384 0.2284616,0.535384 0.1123077,0.14577 0.2746154,0.255385 0.4865383,0.327693 0.211538,0.07269 0.489231,0.108846 0.833461,0.108846 h 7.562308 c 0.529231,0 0.919231,-0.108846 1.171154,-0.326923 0.251154,-0.218462 0.436538,-0.46 0.555384,-0.724615 l 1.707308,1.726538 c -0.07923,0.185769 -0.198461,0.394615 -0.357308,0.625385 -0.158846,0.231923 -0.370769,0.45 -0.635,0.655 -0.265,0.205384 -0.585769,0.377307 -0.962692,0.516153 -0.377308,0.138847 -0.817308,0.208462 -1.320384,0.208462 z"
                   id="Fill-24"
                   fill="#fefefe" />
              </g>
            </g>
          </g>
        </g>
      </g>
    </g>
  </g>
</svg>
