<?xml version="1.0" encoding="UTF-8" standalone="no"?>
<svg
  xmlns:dc='http://purl.org/dc/elements/1.1/'
  xmlns:cc='http://creativecommons.org/ns#'
  xmlns:rdf='http://www.w3.org/1999/02/22-rdf-syntax-ns#'
  xmlns='http://www.w3.org/2000/svg'
  xmlns:sodipodi='http://sodipodi.sourceforge.net/DTD/sodipodi-0.dtd'
  xmlns:inkscape='http://www.inkscape.org/namespaces/inkscape'
  width='135.46666mm'
  height='135.46667mm'
  viewBox='0 0 135.46666 135.46667'
  version='1.1'
  id='svg8'
  inkscape:version='1.0.1 (3bc2e813f5, 2020-09-07)'
  sodipodi:docname='onap_512.svg'>
  <defs
     id="defs2" />
  <sodipodi:namedview
     id="base"
     pagecolor="#ffffff"
     bordercolor="#666666"
     borderopacity="1.0"
     inkscape:pageopacity="0.0"
     inkscape:pageshadow="2"
     inkscape:zoom="1"
     inkscape:cx="254.99999"
     inkscape:cy="382.49625"
     inkscape:document-units="mm"
     inkscape:current-layer="layer1"
     inkscape:document-rotation="0"
     showgrid="false"
     showguides="true"
     inkscape:guide-bbox="true"
     inkscape:window-width="1920"
     inkscape:window-height="1001"
     inkscape:window-x="4791"
     inkscape:window-y="-9"
     inkscape:window-maximized="1" />
  <metadata
     id="metadata5">
    <rdf:RDF>
      <cc:Work
         rdf:about="">
        <dc:format>image/svg+xml</dc:format>
        <dc:type
           rdf:resource="http://purl.org/dc/dcmitype/StillImage" />
        <dc:title />
      </cc:Work>
    </rdf:RDF>
  </metadata>
  <g
     inkscape:label="Layer 1"
     inkscape:groupmode="layer"
     id="layer1"
     transform="translate(-38.364587,-46.964534)">
    <g
       id="g891">
      <rect
         style="fill:none;stroke-width:0.0828541"
         id="rect931"
         width="135.46645"
         height="135.46667"
         x="38.364693"
         y="46.964535" />
      <g
         id="g929"
         transform="matrix(0.71408631,0,0,0.71408744,30.33485,32.793562)">
        <g
           id="g909">
          <path
             style="fill:#252728;fill-opacity:1;stroke:#000000;stroke-width:0.264583px;stroke-linecap:butt;stroke-linejoin:miter;stroke-opacity:1"
             d="m 11.386385,144.42823 -0.0093,53.56829 h 85.539418 z"
             id="path7778" />
          <path
             style="fill:#252728;fill-opacity:1;stroke:#000000;stroke-width:0.264583px;stroke-linecap:butt;stroke-linejoin:miter;stroke-opacity:1"
             d="m 200.80945,144.42823 0.009,53.56829 h -85.53941 z"
             id="path7780" />
          <path
             style="fill:#252728;fill-opacity:1;stroke:#000000;stroke-width:0.264583px;stroke-linecap:butt;stroke-linejoin:miter;stroke-opacity:1"
             d="m 200.80975,84.967496 0.009,-53.568284 h -85.53942 z"
             id="path7782" />
          <path
             style="fill:#252728;fill-opacity:1;stroke:#000000;stroke-width:0.264583px;stroke-linecap:butt;stroke-linejoin:miter;stroke-opacity:1"
             d="m 11.386085,84.967506 -0.009,-53.568294 h 85.539416 z"
             id="path7784" />
        </g>
        <g
           id="g918"
           transform="translate(11.377085,34.307641)">
          <path
             id="path7720"
             style="opacity:1;fill:#1f3d7c;fill-opacity:1;stroke:none;stroke-width:1.48358;stroke-linejoin:miter;stroke-miterlimit:4;stroke-dasharray:none"
             d="M 96.13733,150.99858 58.341783,127.44042 c 8.715431,-10.97674 22.069544,-18.22157 37.795545,-23.55817 18.664302,6.41492 28.816872,14.84742 37.795552,23.55817 z"
             sodipodi:nodetypes="ccccc" />
          <g
             id="g7923"
             transform="translate(9.5787166e-5,5.9572513e-5)">
            <path
               id="path7722"
               style="opacity:0.999;fill:#0081a4;fill-opacity:1;stroke:none;stroke-width:5.60724;stroke-linejoin:miter;stroke-miterlimit:4;stroke-dasharray:none"
               d="m 77.654297,214.54883 -12.035156,7.50195 V 385.12305 L 77.654297,392.625 C 134.38081,367.89947 180.88136,337.61289 220.50391,303.58594 178.10009,266.29585 130.2023,237.02747 77.654297,214.54883 Z"
               transform="scale(0.26458333)"
               sodipodi:nodetypes="cccccc" />
            <path
               id="path7724"
               style="opacity:0.999;fill:#0081a4;fill-opacity:1;stroke:none;stroke-width:2.8;stroke-linejoin:miter;stroke-miterlimit:4;stroke-dasharray:none"
               transform="matrix(0.6711242,0,0,0.41831531,31.023878,52.065734)"
               d="M 97.021318,123.86938 C 70.596563,109.56205 54.910314,88.989236 40.704548,67.552614 57.969944,45.682337 76.496459,26.404851 97.021315,11.235844 121.08206,26.256569 139.1231,45.547538 153.33809,67.552611 138.87483,91.09219 119.569,109.27412 97.021318,123.86938 Z"
               sodipodi:nodetypes="ccccc" />
            <path
               id="path7726"
               style="opacity:0.999;fill:#0081a4;fill-opacity:1;stroke:none;stroke-width:5.60724;stroke-linejoin:miter;stroke-miterlimit:4;stroke-dasharray:none"
               d="m 649.05273,214.54883 c -50.75146,26.54411 -102.16252,52.42863 -142.84961,89.03711 37.05592,34.81884 82.35689,65.62536 142.84961,89.03906 l 12.03516,-7.50195 V 222.05078 Z"
               transform="scale(0.26458333)"
               sodipodi:nodetypes="cccccc" />
          </g>
          <g
             id="g7746"
             style="opacity:1;fill:#00b0aa;fill-opacity:1"
             transform="translate(144.72404,-78.959013)">
            <path
               id="path7733"
               style="opacity:0.999;fill:#00b0aa;fill-opacity:1;stroke:none;stroke-width:2.8;stroke-linejoin:miter;stroke-miterlimit:4;stroke-dasharray:none"
               transform="matrix(0.6711242,0,0,0.41831531,-151.49571,107.46658)"
               d="M 97.021318,123.86938 40.704548,67.552614 97.021315,11.235844 C 117.7448,26.909858 136.47987,45.741167 153.33809,67.552611 Z"
               sodipodi:nodetypes="ccccc" />
            <path
               id="path7735"
               style="opacity:1;fill:#00b0aa;fill-opacity:1;stroke:none;stroke-width:2.8;stroke-linejoin:miter;stroke-miterlimit:4;stroke-dasharray:none"
               transform="matrix(0.6711242,0,0,0.41831531,-75.904619,107.46658)"
               d="M 97.021318,123.86938 40.704548,67.552614 c 15.71848,-22.033132 35.252803,-39.99164 56.316767,-56.31677 l 56.316775,56.316767 z"
               sodipodi:nodetypes="ccccc" />
          </g>
          <path
             id="path7748"
             style="opacity:1;fill:#69c7b9;fill-opacity:1;stroke:none;stroke-width:1.48358;stroke-linejoin:miter;stroke-miterlimit:4;stroke-dasharray:none"
             d="M 96.13723,56.765859 58.341683,33.207694 96.137228,9.6495269 133.93278,33.207693 Z" />
          <g
             id="g7754"
             style="opacity:1;fill:#006fa0;fill-opacity:1"
             transform="translate(144.72414,-31.842621)">
            <path
               id="path7750"
               style="opacity:0.999;fill:#006fa0;fill-opacity:1;stroke:none;stroke-width:2.8;stroke-linejoin:miter;stroke-miterlimit:4;stroke-dasharray:none"
               transform="matrix(0.6711242,0,0,0.41831531,-151.49571,107.46658)"
               d="M 97.021318,123.86938 40.704548,67.552614 97.021315,11.235844 153.33809,67.552611 Z" />
            <path
               id="path7752"
               style="opacity:0.999;fill:#006fa0;fill-opacity:1;stroke:none;stroke-width:2.8;stroke-linejoin:miter;stroke-miterlimit:4;stroke-dasharray:none"
               transform="matrix(0.6711242,0,0,0.41831531,-75.904619,107.46658)"
               d="M 97.021318,123.86938 40.704548,67.552614 97.021315,11.235844 153.33809,67.552611 Z" />
          </g>
        </g>
      </g>
    </g>
  </g>
</svg>
