<?xml version="1.0" encoding="UTF-8" standalone="no"?>
<svg
  xmlns:dc='http://purl.org/dc/elements/1.1/'
  xmlns:cc='http://creativecommons.org/ns#'
  xmlns:rdf='http://www.w3.org/1999/02/22-rdf-syntax-ns#'
  xmlns='http://www.w3.org/2000/svg'
  xmlns:xlink='http://www.w3.org/1999/xlink'
  xmlns:sodipodi='http://sodipodi.sourceforge.net/DTD/sodipodi-0.dtd'
  xmlns:inkscape='http://www.inkscape.org/namespaces/inkscape'
  width='135.46666mm'
  height='135.46666mm'
  viewBox='0 0 135.46666 135.46666'
  version='1.1'
  id='svg1715'
  inkscape:version='1.0.1 (3bc2e813f5, 2020-09-07)'
  sodipodi:docname='sdc_512.svg'>
  <defs
     id="defs1709">
    <linearGradient
       inkscape:collect="always"
       xlink:href="#linearGradient851"
       id="linearGradient1672"
       gradientUnits="userSpaceOnUse"
       gradientTransform="matrix(2.3911867,0,0,2.3661441,-145.87097,-204.18732)"
       x1="95.654984"
       y1="137.89748"
       x2="114.46542"
       y2="148.75768" />
    <linearGradient
       inkscape:collect="always"
       id="linearGradient851">
      <stop
         style="stop-color:#1ae5d9;stop-opacity:1"
         offset="0"
         id="stop847" />
      <stop
         style="stop-color:#4b7cc9;stop-opacity:1"
         offset="1"
         id="stop849" />
    </linearGradient>
  </defs>
  <sodipodi:namedview
     id="base"
     pagecolor="#ffffff"
     bordercolor="#666666"
     borderopacity="1.0"
     inkscape:pageopacity="0.0"
     inkscape:pageshadow="2"
     inkscape:zoom="4"
     inkscape:cx="240.19182"
     inkscape:cy="200.15801"
     inkscape:document-units="mm"
     inkscape:current-layer="layer1"
     inkscape:document-rotation="0"
     showgrid="false"
     inkscape:window-width="2400"
     inkscape:window-height="1271"
     inkscape:window-x="2391"
     inkscape:window-y="-9"
     inkscape:window-maximized="1" />
  <metadata
     id="metadata1712">
    <rdf:RDF>
      <cc:Work
         rdf:about="">
        <dc:format>image/svg+xml</dc:format>
        <dc:type
           rdf:resource="http://purl.org/dc/dcmitype/StillImage" />
        <dc:title />
      </cc:Work>
    </rdf:RDF>
  </metadata>
  <g
     inkscape:label="Layer 1"
     inkscape:groupmode="layer"
     id="layer1"
     transform="translate(-37.266669,-80.76667)">
    <rect
       style="fill:#ffffff;stroke-width:0.1"
       id="rect843"
       width="47.247025"
       height="19.654762"
       x="81.376488"
       y="167.51221" />
    <path
       id="rect1648"
       style="fill:#2c333c;fill-opacity:1;stroke-width:0.1"
       d="M 37.266668,80.76667 V 216.23333 H 172.73333 V 80.76667 Z m 68.051142,28.80444 c 0.008,-5e-5 0.0169,-5e-5 0.0253,0 0.37568,0.0253 0.737,0.1074 1.05627,0.27957 6.74476,4.33831 13.55385,8.09768 20.38635,11.64632 0.62356,0.39304 1.00213,1.10293 1.05161,1.81229 -0.45264,7.75818 -0.1237,15.51637 0,23.27455 -0.0243,0.71973 -0.51981,1.29816 -1.05161,1.81178 -7.06313,3.50751 -13.75925,7.52884 -20.38633,11.64683 -0.61604,0.2797 -1.4333,0.32478 -2.10323,0 -6.529496,-4.03003 -13.080116,-8.04832 -20.386356,-11.64683 -0.59609,-0.38772 -0.952697,-1.09256 -1.051615,-1.81178 0.194219,-7.80674 0.483868,-15.63733 0,-23.27455 0.05981,-0.71636 0.509685,-1.38156 1.051615,-1.81229 7.14441,-3.53315 13.856931,-7.49819 20.386356,-11.64632 0.31868,-0.16359 0.68515,-0.22987 1.02164,-0.27957 z m -0.032,2.06396 c -0.57462,0.003 -1.13829,0.15742 -1.63401,0.44803 -6.525104,3.41263 -12.716996,7.06327 -18.618539,10.9213 v 0.0129 c 6.670706,4.06704 13.326132,8.15445 20.256129,11.87576 7.09558,-3.8726 13.8416,-7.83842 20.26904,-11.88919 v -0.0134 c -6.04188,-3.7501 -11.96787,-7.58298 -18.60506,-10.90786 -0.49577,-0.29043 -1.05944,-0.4448 -1.63401,-0.44752 -0.0112,-6e-5 -0.0224,-6e-5 -0.0336,0 z m -20.552234,13.25139 -0.01188,0.006 c -0.166708,6.83653 -0.301451,13.68584 -0.03049,20.69744 -0.0013,0.89912 0.479559,1.72992 1.259872,2.17661 6.005006,3.92556 12.15492,7.27149 18.336352,10.49135 l 0.0124,-0.006 c 0.14844,-7.28293 0.3112,-14.56586 0.0263,-21.84879 -6.185763,-4.13466 -12.784737,-7.91514 -19.592554,-11.51661 z m 41.228494,0 c -6.65595,3.66352 -13.15809,7.54237 -19.59209,11.51661 -0.28213,7.39937 -0.1253,14.62315 0.0269,21.84879 l 0.0109,0.006 c 6.11212,-3.40849 12.22423,-6.59129 18.33635,-10.49135 1.07293,-0.3839 1.39195,-1.24945 1.26039,-2.17661 0.53235,-7.13183 -0.004,-13.80574 -0.0305,-20.69796 z m -35.28626,45.13471 c 0.980549,0 1.880378,0.0937 2.698544,0.28112 0.818166,0.18737 1.542193,0.41819 2.172994,0.69298 v 2.19211 h -0.130741 c -0.530874,-0.44968 -1.23045,-0.82112 -2.09858,-1.11466 -0.861886,-0.29978 -1.745917,-0.44958 -2.651519,-0.44958 -0.99304,0 -1.792486,0.20584 -2.398303,0.61805 -0.599572,0.41221 -0.89917,0.94313 -0.89917,1.59267 0,0.58083 0.149799,1.03686 0.449585,1.36787 0.299786,0.33102 0.827656,0.58425 1.583365,0.75913 0.399716,0.0874 0.967832,0.19341 1.704805,0.31833 0.736976,0.12491 1.361654,0.2528 1.87379,0.38395 1.036754,0.27481 1.817349,0.69007 2.341975,1.24592 0.524624,0.55585 0.787032,1.33339 0.787032,2.33267 0,0.54336 -0.127894,1.08092 -0.383955,1.61179 -0.249822,0.53088 -0.602927,0.98027 -1.058852,1.34876 -0.499642,0.39971 -1.083559,0.71205 -1.75183,0.93689 -0.662027,0.22484 -1.461479,0.33745 -2.398302,0.33745 -1.005533,0 -1.910956,-0.0938 -2.716631,-0.28112 -0.79943,-0.18737 -1.614673,-0.46557 -2.445329,-0.83406 v -2.32337 h 0.131257 c 0.705747,0.58708 1.520989,1.04004 2.445329,1.35857 0.924341,0.31852 1.792574,0.47801 2.604492,0.47801 1.149181,0 2.041861,-0.21553 2.678907,-0.64647 0.643292,-0.43095 0.965316,-1.0057 0.965316,-1.72393 0,-0.61831 -0.153374,-1.07433 -0.459404,-1.36787 -0.299786,-0.29355 -0.758867,-0.5213 -1.377177,-0.68368 -0.468416,-0.12492 -0.977429,-0.22783 -1.527038,-0.30903 -0.543361,-0.0812 -1.120648,-0.18463 -1.732711,-0.30954 -1.236617,-0.26231 -2.154782,-0.70865 -2.754355,-1.33945 -0.593325,-0.63705 -0.890384,-1.46452 -0.890384,-2.48254 0,-1.16792 0.493734,-2.12379 1.480529,-2.86701 0.986796,-0.74947 2.238693,-1.12396 3.756361,-1.12396 z m 29.23852,0 c 0.74947,0 1.49592,0.0907 2.23914,0.27182 0.74947,0.18112 1.57999,0.49957 2.49184,0.9555 v 2.20141 h -0.14004 c -0.7682,-0.64329 -1.53045,-1.11154 -2.28617,-1.40508 -0.7557,-0.29354 -1.56432,-0.44028 -2.4262,-0.44028 -0.70575,0 -1.34318,0.11514 -1.91152,0.34623 -0.5621,0.22484 -1.06448,0.57794 -1.50791,1.05885 -0.43095,0.46841 -0.76826,1.06149 -1.01183,1.77973 -0.23733,0.712 -0.35605,1.53641 -0.35605,2.47324 0,0.98055 0.13094,1.82381 0.39326,2.52956 0.26856,0.70575 0.61249,1.28049 1.03094,1.72393 0.43719,0.46216 0.94621,0.80558 1.52704,1.03042 0.58708,0.2186 1.20513,0.32815 1.85467,0.32815 0.89311,0 1.73026,-0.15337 2.51096,-0.45941 0.78068,-0.30602 1.51134,-0.76511 2.19211,-1.37717 h 0.13074 v 2.17351 c -0.3435,0.14989 -0.65533,0.29052 -0.93637,0.42168 -0.27481,0.13116 -0.63708,0.26873 -1.08676,0.41238 -0.38098,0.11866 -0.79625,0.21852 -1.24592,0.29972 -0.44343,0.0874 -0.93411,0.13126 -1.47123,0.13126 -1.01178,0 -1.933,-0.14064 -2.76365,-0.42168 -0.82442,-0.28729 -1.54233,-0.73415 -2.15439,-1.33997 -0.59958,-0.59333 -1.06834,-1.3459 -1.4056,-2.25775 -0.33726,-0.9181 -0.50592,-1.983 -0.50592,-3.19463 0,-1.14918 0.16255,-2.17638 0.48731,-3.08198 0.32478,-0.90561 0.79303,-1.6704 1.40509,-2.29495 0.59332,-0.60582 1.3087,-1.06847 2.1456,-1.387 0.84315,-0.31852 1.7766,-0.47749 2.80086,-0.47749 z m -20.825598,0.2527 h 3.485058 c 1.36153,0 2.44224,0.0999 3.24166,0.29972 0.80568,0.19361 1.4864,0.46265 2.04226,0.80615 0.94932,0.59333 1.68915,1.38308 2.22002,2.36988 0.53087,0.9868 0.79633,2.15769 0.79633,3.51297 0,1.26785 -0.27769,2.41734 -0.83354,3.44785 -0.54961,1.03051 -1.28384,1.82996 -2.20194,2.3983 -0.63704,0.39347 -1.34884,0.67779 -2.13578,0.85266 -0.78069,0.17488 -1.81095,0.262 -3.09128,0.262 h -3.522788 z m 1.855188,1.59266 v 10.76421 h 1.74253 c 0.89311,0 1.67064,-0.0652 2.33267,-0.19638 0.66827,-0.13115 1.28021,-0.37522 1.83606,-0.73122 0.69326,-0.44343 1.21145,-1.02735 1.55495,-1.75183 0.34975,-0.72448 0.52451,-1.62991 0.52451,-2.71663 0,-1.09297 -0.19004,-2.01419 -0.57102,-2.76365 -0.38098,-0.74947 -0.94962,-1.3395 -1.70532,-1.77044 -0.54961,-0.31228 -1.13352,-0.5278 -1.75184,-0.64647 -0.6183,-0.12491 -1.35813,-0.18759 -2.22001,-0.18759 z"
       sodipodi:nodetypes="ccccccccccccccccccccccccccccsccccccccccccccccccscccccscsscscsscccsccccsscscccccscssccccsscccscccssccccccscccssccscsccsscccsccccscccssccsc" />
    <path
       id="path1670"
       style="opacity:1;fill:url(#linearGradient1672);fill-opacity:1;stroke-width:3.09223;stroke-linecap:round"
       d="m 105.34297,109.57121 c -0.36729,7.7e-4 -0.72808,0.097 -1.04701,0.27913 L 83.909519,121.4971 c -0.650209,0.37155 -1.051463,1.06302 -1.05142,1.8119 v 23.27462 c -5.1e-5,0.74888 0.401205,1.44037 1.05142,1.81192 l 20.386441,11.64676 c 0.65163,0.37228 1.45154,0.37228 2.10317,0 l 20.38641,-11.64676 c 0.65034,-0.37147 1.05173,-1.06297 1.05174,-1.81192 V 123.309 c -2e-5,-0.74894 -0.40141,-1.44044 -1.05174,-1.8119 l -20.38641,-11.64676 c -0.32162,-0.18371 -0.68577,-0.27995 -1.05616,-0.27913 z m -0.0571,2.06355 c 0.0111,-6e-5 0.0223,-6e-5 0.0334,0 0.57458,0.003 1.13822,0.15739 1.63392,0.44795 l 18.60497,10.90786 v 0.0132 l -20.26905,11.8892 -20.255751,-11.87561 v -0.0132 l 18.618581,-10.92118 c 0.49567,-0.29067 1.05931,-0.44529 1.63391,-0.44825 z m -20.552611,13.2517 19.592831,11.51667 -0.0266,21.84884 -0.0119,0.006 -18.336511,-10.49126 c -0.780478,-0.44664 -1.261492,-1.27753 -1.26017,-2.17677 l 0.0307,-20.69748 z m 41.228501,0 0.0119,0.006 0.0307,20.69748 c 10e-4,0.8993 -0.47988,1.7302 -1.26047,2.17677 l -18.33649,10.49126 -0.0107,-0.006 -0.0268,-21.84884 z"
       sodipodi:nodetypes="ccccccccccccccccccccccccccccccccccccccccc" />
  </g>
</svg>
